<?xml version="1.0" encoding="UTF-8"?>
<svg id="Layer_1" xmlns="http://www.w3.org/2000/svg" viewBox="0 0 1984 1125">
  <defs>
    <style>
      .cls-1 {
        fill: none;
        stroke: #d6d9d2;
        stroke-miterlimit: 10;
      }
    </style>
  </defs>
  <line class="cls-1" x1="992" x2="992" y2="1125"/>
  <line class="cls-1" x1="1120" x2="1120" y2="1125"/>
  <line class="cls-1" x1="1248" x2="1248" y2="1125"/>
  <line class="cls-1" x1="1376" x2="1376" y2="1125"/>
  <line class="cls-1" x1="1504" x2="1504" y2="1125"/>
  <line class="cls-1" x1="1632" x2="1632" y2="1125"/>
  <line class="cls-1" x1="1760" x2="1760" y2="1125"/>
  <line class="cls-1" x1="1888" x2="1888" y2="1125"/>
  <line class="cls-1" x1="864" x2="864" y2="1125"/>
  <line class="cls-1" x1="736" x2="736" y2="1125"/>
  <line class="cls-1" x1="608" x2="608" y2="1125"/>
  <line class="cls-1" x1="480" x2="480" y2="1125"/>
  <line class="cls-1" x1="352" x2="352" y2="1125"/>
  <line class="cls-1" x1="224" x2="224" y2="1125"/>
  <line class="cls-1" x1="96" x2="96" y2="1125"/>
  <line class="cls-1" y1="288" x2="1984" y2="288"/>
  <line class="cls-1" y1="160" x2="1984" y2="160"/>
  <line class="cls-1" y1="37" x2="1984" y2="37"/>
  <line class="cls-1" y1="800" x2="1984" y2="800"/>
  <line class="cls-1" y1="928" x2="1984" y2="928"/>
  <line class="cls-1" y1="1056" x2="1984" y2="1056"/>
  <line class="cls-1" y1="672" x2="1984" y2="672"/>
  <line class="cls-1" x1="768" y1="544" x2="769" y2="544"/>
  <line class="cls-1" y1="416" x2="1984" y2="416"/>
  <line class="cls-1" y1="544" x2="1984" y2="544"/>
</svg>